<svg xmlns="http://www.w3.org/2000/svg" viewBox="0 0 32 32">
  <defs>
    <linearGradient id="leafGradient" x1="0%" y1="0%" x2="100%" y2="100%">
      <stop offset="0%" style="stop-color:#00ff88;stop-opacity:1" />
      <stop offset="50%" style="stop-color:#00cc6a;stop-opacity:1" />
      <stop offset="100%" style="stop-color:#00994f;stop-opacity:1" />
    </linearGradient>
    <linearGradient id="stemGradient" x1="0%" y1="0%" x2="0%" y2="100%">
      <stop offset="0%" style="stop-color:#00994f;stop-opacity:1" />
      <stop offset="100%" style="stop-color:#006633;stop-opacity:1" />
    </linearGradient>
  </defs>
  <!-- Leaf shape -->
  <path d="M16 4 C8 4, 4 10, 4 16 C4 22, 8 28, 16 28 C24 28, 28 22, 28 16 C28 10, 24 4, 16 4 Z" 
        fill="url(#leafGradient)" 
        opacity="0.95"/>
  <!-- Leaf vein/stem -->
  <path d="M16 8 L16 24 M16 12 L12 10 M16 16 L12 14 M16 20 L12 18 M16 12 L20 10 M16 16 L20 14 M16 20 L20 18" 
        stroke="url(#stemGradient)" 
        stroke-width="0.8" 
        stroke-linecap="round" 
        fill="none" 
        opacity="0.6"/>
  <!-- Highlight -->
  <ellipse cx="13" cy="11" rx="3" ry="4" fill="white" opacity="0.3"/>
</svg>